<svg width="20" height="20" viewBox="0 0 20 20" fill="none" xmlns="http://www.w3.org/2000/svg">
<path d="M10 20C15.5228 20 20 15.5228 20 10C20 4.47715 15.5228 0 10 0C4.47715 0 0 4.47715 0 10C0 15.5228 4.47715 20 10 20Z" fill="#000000"/>
<path d="M10.5603 5.30196L11.706 7.62383C11.7967 7.80782 11.9721 7.93555 12.1748 7.96563L14.7373 8.3379C15.0787 8.38829 15.3146 8.70626 15.2639 9.04766C15.2439 9.18243 15.1803 9.30743 15.083 9.40274L13.2303 11.2109C13.0834 11.3547 13.0162 11.5613 13.051 11.7637L13.4885 14.3152C13.5463 14.6555 13.3174 14.9781 12.9767 15.0359C12.842 15.059 12.7033 15.0367 12.5822 14.9734L10.2908 13.7688C10.1088 13.6731 9.89159 13.6731 9.70956 13.7688L7.41815 14.9727C7.11229 15.1328 6.73456 15.0149 6.5744 14.709C6.51073 14.5879 6.48885 14.4492 6.5119 14.3145L6.9494 11.7629C6.98378 11.5606 6.91698 11.3543 6.7701 11.2109L4.9162 9.40352C4.66971 9.16212 4.66542 8.76641 4.90682 8.51954C5.00214 8.42227 5.12674 8.3586 5.2619 8.33868L7.8244 7.96641C8.02714 7.93634 8.20253 7.8086 8.29315 7.62462L9.43885 5.30274C9.5912 4.99298 9.96581 4.86524 10.2756 5.01758C10.3994 5.07852 10.4994 5.17852 10.5603 5.30196Z" fill="#fffff"/>
</svg>
