<svg width="36" height="36" viewBox="0 0 36 36" fill="none" xmlns="http://www.w3.org/2000/svg">
<path d="M18 36C27.9411 36 36 27.9411 36 18C36 8.05887 27.9411 0 18 0C8.05887 0 0 8.05887 0 18C0 27.9411 8.05887 36 18 36Z" fill="#0B0B0B"/>
<path d="M19.008 9.54359L21.0703 13.723C21.2334 14.0541 21.5491 14.2841 21.914 14.3382L26.5265 15.0083C27.1411 15.099 27.5658 15.6713 27.4744 16.2859C27.4385 16.5284 27.3239 16.7534 27.1488 16.925L23.8139 20.1798C23.5495 20.4385 23.4286 20.8105 23.4912 21.1747L24.2786 25.7675C24.3827 26.3799 23.9707 26.9607 23.3576 27.0648C23.115 27.1062 22.8654 27.0662 22.6474 26.9523L18.5229 24.7838C18.1952 24.6116 17.8043 24.6116 17.4766 24.7838L13.3521 26.9509C12.8015 27.2391 12.1216 27.0268 11.8333 26.4762C11.7187 26.2583 11.6794 26.0087 11.7208 25.7661L12.5083 21.1733C12.5702 20.8091 12.45 20.4378 12.1856 20.1798L8.84857 16.9264C8.4049 16.4919 8.39716 15.7796 8.8317 15.3352C9.00326 15.1602 9.22755 15.0455 9.47084 15.0097L14.0833 14.3396C14.4483 14.2855 14.764 14.0555 14.9271 13.7244L16.9894 9.545C17.2636 8.98742 17.9379 8.7575 18.4954 9.03171C18.7183 9.1414 18.8983 9.3214 19.008 9.54359Z" fill="#EBEBEC"/>
</svg>
